<svg width="40" height="40" viewBox="0 0 40 40" fill="none" xmlns="http://www.w3.org/2000/svg">
<path fill-rule="evenodd" clip-rule="evenodd" d="M0 20.001C0 8.95528 8.95431 0.000976562 20 0.000976562C31.0457 0.000976562 40 8.95528 40 20.001C40 31.0467 31.0457 40.001 20 40.001C8.95431 40.001 0 31.0467 0 20.001ZM16.34 19.4295V21.601H19.9439C19.7987 22.5329 18.8546 24.3334 16.34 24.3334C14.1704 24.3334 12.4003 22.5419 12.4003 20.3343C12.4003 18.1267 14.1704 16.3353 16.34 16.3353C17.5746 16.3353 18.4007 16.86 18.8727 17.3124L20.5975 15.6567C19.49 14.6253 18.0557 14.001 16.34 14.001C12.8269 14.001 9.98557 16.8329 9.98557 20.3343C9.98557 23.8357 12.8269 26.6676 16.34 26.6676C20.0075 26.6676 22.4403 24.0981 22.4403 20.4791C22.4403 20.0629 22.3949 19.7462 22.3404 19.4295H16.34ZM28.1412 19.4296H29.9567V21.2391H28.1412V23.0486H26.3256V21.2391H24.51V19.4296H26.3256V17.62H28.1412V19.4296Z" fill="white"/>
</svg>
