<svg width="21" height="21" viewBox="0 0 21 21" fill="none" xmlns="http://www.w3.org/2000/svg">
<path fill-rule="evenodd" clip-rule="evenodd" d="M9.76657 1.52803C5.21654 1.52803 1.52802 5.21656 1.52802 9.76659C1.52802 14.3166 5.21654 18.0051 9.76657 18.0051C14.3166 18.0051 18.0051 14.3166 18.0051 9.76659C18.0051 5.21656 14.3166 1.52803 9.76657 1.52803ZM0.0280151 9.76659C0.0280151 4.38813 4.38812 0.0280304 9.76657 0.0280304C15.145 0.0280304 19.5051 4.38813 19.5051 9.76659C19.5051 15.145 15.145 19.5051 9.76657 19.5051C4.38812 19.5051 0.0280151 15.145 0.0280151 9.76659Z" fill="white"/>
<path fill-rule="evenodd" clip-rule="evenodd" d="M15.4873 15.9555C15.7798 15.6622 16.2547 15.6616 16.548 15.9541L20.072 19.469C20.3653 19.7615 20.3659 20.2364 20.0734 20.5296C19.7808 20.8229 19.306 20.8235 19.0127 20.531L15.4887 17.0161C15.1954 16.7236 15.1948 16.2488 15.4873 15.9555Z" fill="white"/>
</svg>
