<svg width="40" height="40" viewBox="0 0 40 40" fill="none" xmlns="http://www.w3.org/2000/svg">
<path fill-rule="evenodd" clip-rule="evenodd" d="M20 40.001C31.0457 40.001 40 31.0467 40 20.001C40 8.95528 31.0457 0.000976562 20 0.000976562C8.95431 0.000976562 0 8.95528 0 20.001C0 31.0467 8.95431 40.001 20 40.001ZM16.3333 29.1676C16.8198 29.1676 17.0421 28.9512 17.3107 28.6896L17.3333 28.6676L19.7356 26.3317L24.7333 30.0241C25.6531 30.5316 26.3169 30.2689 26.546 29.1702L29.8268 13.7097C30.1627 12.363 29.3135 11.7522 28.4336 12.1517L9.1686 19.5802C7.85358 20.1076 7.86125 20.8413 8.9289 21.1682L13.8727 22.7112L25.3182 15.4904C25.8585 15.1628 26.3544 15.3389 25.9474 15.7001L16.6738 24.0689L16.6737 24.0688L16.6737 24.069L16.6733 24.0693L16.6736 24.0695L16.3333 29.1676Z" fill="white"/>
</svg>
